<?xml version="1.0" encoding="UTF-8"?>
<svg id="Layer_2" data-name="Layer 2" xmlns="http://www.w3.org/2000/svg" viewBox="0 0 566.3 590.09">
  <defs>
    <style>
      .cls-1 {
        fill: #8015e8;
      }

      .cls-2 {
        fill: #00a1f2;
      }

      .cls-3 {
        fill: #10e0d4;
      }
    </style>
  </defs>
  <g id="_Слой_1" data-name="Слой 1">
    <g>
      <path class="cls-3" d="M268.3,165.22c-35.79,0-68.25,14.56-91.78,38.07-23.5,23.5-38.07,55.97-38.07,91.76h67.41c0-17.21,7-32.82,18.31-44.13,11.31-11.29,26.91-18.29,44.12-18.29,34.42,0,62.41,27.99,62.41,62.41s-27.99,62.43-62.41,62.43h-129.81v67.24l129.81.17c71.59,0,129.84-58.25,129.84-129.84s-58.25-129.83-129.84-129.83Z"/>
      <path class="cls-2" d="M270.22,84.19c-58.14,0-110.85,23.65-149.03,61.82l50.71,50.73c25.18-25.18,59.96-40.79,98.31-40.79,76.69,0,139.09,62.4,139.09,139.09s-62.4,139.11-139.09,139.11H70.58v71.76h199.64c116.25,0,210.84-94.59,210.84-210.86s-94.59-210.85-210.84-210.85Z"/>
      <path class="cls-1" d="M271.27,0v75.27c121.19,0,219.78,98.58,219.78,219.77s-98.6,219.78-219.78,219.78l-271.27.21v75.07h271.27c162.68,0,295.04-132.35,295.04-295.05S433.95,0,271.27,0Z"/>
    </g>
  </g>
</svg>