<?xml version="1.0" encoding="UTF-8"?>
<svg id="_Слой_1" data-name="Слой 1" xmlns="http://www.w3.org/2000/svg" viewBox="0 0 1300 900">
  <defs>
    <style>
      .cls-1 {
        fill: #8015e8;
      }

      .cls-2 {
        fill: #16183d;
      }

      .cls-3 {
        fill: #fff;
      }

      .cls-4 {
        fill: #00a1f2;
      }

      .cls-5 {
        fill: #10e0d4;
      }
    </style>
  </defs>
  <rect class="cls-2" x="-50.96" y="-38.53" width="1409.36" height="980.43"/>
  <g>
    <g>
      <path class="cls-3" d="M511.44,437.78c0-4.4,4.32-7.17,9.37-7.17,5.63,0,9.87,3.34,9.87,7.82h9.94c0-9.45-8.48-16.55-19.64-16.55s-19.48,6.53-19.48,16.63c0,19.16,30.07,14.1,30.07,25.27,0,4.48-4.56,7.58-10.27,7.58-6.11,0-10.84-3.67-10.84-8.56h-9.94c0,9.78,8.88,17.28,20.7,17.28s20.38-6.84,20.38-17.36c0-19.56-30.16-13.77-30.16-24.94Z"/>
      <path class="cls-3" d="M576.16,437.53v23.64c0,6.03-4.16,10.11-10.35,10.11-5.87,0-9.7-3.99-9.7-9.94v-23.81h-9.13v26.5c0,9.7,6.36,16.05,15.89,16.05,5.55,0,10.11-2.12,13.29-6.11v5.13h9.13v-41.57h-9.13Z"/>
      <path class="cls-3" d="M615.13,436.88c-5.87,0-10.67,2.86-13.94,7.58v-6.93h-9.12v41.57h9.12v-20.21c0-7.66,5.14-12.63,13.94-12.63h1.47v-9.38h-1.47Z"/>
      <path class="cls-3" d="M636.96,434.68v2.84h10.28v8.31h-10.28v33.27h-9.12v-33.27h-7.02v-8.31h13.5l-6.48-3.16v-.74c0-8.81,5.22-13.7,14.91-13.7h5.06v8.4h-4.24c-4.15,0-6.61,2.36-6.61,6.36Z"/>
      <path class="cls-3" d="M677.15,436.55c-6.11,0-11.17,2.61-14.67,6.92v-23.06h-9.13v58.68h9.13v-5.95c3.5,4.32,8.56,6.93,14.67,6.93,11.65,0,20.46-9.37,20.46-21.76s-8.81-21.76-20.46-21.76ZM675.36,471.28c-7.34,0-12.88-5.62-12.88-12.96s5.54-12.96,12.88-12.96,12.79,5.62,12.79,12.96-5.46,12.96-12.79,12.96Z"/>
      <path class="cls-3" d="M724.09,436.55c-12.71,0-22.25,9.37-22.25,21.76s9.54,21.76,22.25,21.76,22.26-9.37,22.26-21.76-9.62-21.76-22.26-21.76ZM724.09,471.28c-7.33,0-12.87-5.62-12.87-12.96s5.54-12.96,12.87-12.96,12.8,5.62,12.8,12.96-5.46,12.96-12.8,12.96Z"/>
      <path class="cls-3" d="M785.63,437.53v5.95c-3.42-4.31-8.48-6.92-14.59-6.92-11.74,0-20.46,9.37-20.46,21.76s8.72,21.76,20.46,21.76c6.11,0,11.17-2.61,14.59-6.93v5.95h9.13v-41.57h-9.13ZM772.83,471.28c-7.41,0-12.88-5.62-12.88-12.96s5.47-12.96,12.88-12.96,12.8,5.62,12.8,12.96-5.46,12.96-12.8,12.96Z"/>
      <path class="cls-3" d="M825.06,436.88c-5.87,0-10.68,2.86-13.94,7.58v-6.93h-9.13v41.57h9.13v-20.21c0-7.66,5.14-12.63,13.94-12.63h1.47v-9.38h-1.47Z"/>
      <path class="cls-3" d="M864.26,420.42v23.06c-3.42-4.31-8.48-6.92-14.59-6.92-11.74,0-20.46,9.37-20.46,21.76s8.72,21.76,20.46,21.76c6.11,0,11.17-2.61,14.59-6.93v5.95h9.13v-58.68h-9.13ZM851.46,471.28c-7.41,0-12.87-5.62-12.87-12.96s5.46-12.96,12.87-12.96,12.8,5.62,12.8,12.96-5.46,12.96-12.8,12.96Z"/>
    </g>
    <g>
      <path class="cls-5" d="M455.84,435.85c-3.9,0-7.44,1.59-10,4.15-2.56,2.56-4.15,6.1-4.15,10h7.34c0-1.88.76-3.58,1.99-4.81,1.23-1.23,2.93-1.99,4.81-1.99,3.75,0,6.8,3.05,6.8,6.8s-3.05,6.8-6.8,6.8h-14.14v7.33l14.14.02c7.8,0,14.15-6.35,14.15-14.15s-6.35-14.15-14.15-14.15Z"/>
      <path class="cls-4" d="M456.05,427.03c-6.33,0-12.08,2.58-16.24,6.74l5.53,5.53c2.74-2.74,6.53-4.44,10.71-4.44,8.36,0,15.16,6.8,15.16,15.16s-6.8,15.16-15.16,15.16h-21.75v7.82h21.75c12.67,0,22.97-10.31,22.97-22.98s-10.31-22.97-22.97-22.97Z"/>
      <path class="cls-1" d="M456.16,417.85v8.2c13.2,0,23.95,10.74,23.95,23.95s-10.74,23.95-23.95,23.95l-29.56.02v8.18h29.56c17.73,0,32.15-14.42,32.15-32.15s-14.42-32.15-32.15-32.15Z"/>
    </g>
  </g>
</svg>